<mxfile host="app.diagrams.net" modified="2024-03-05T13:08:06.733Z" agent="Mozilla/5.0 (Macintosh; Intel Mac OS X 10_15_7) AppleWebKit/537.36 (KHTML, like Gecko) Chrome/121.0.0.0 Safari/537.36" version="24.0.1" etag="A_DqxAiohX0Z_NEudhOx" type="github">
  <diagram name="페이지-1" id="ycRSL9p5RWubokEu0u67">
    <mxGraphModel>
      <root>
        <mxCell id="0" />
        <mxCell id="1" parent="0" />
      </root>
    </mxGraphModel>
  </diagram>
</mxfile>
